<mxfile host="app.diagrams.net" modified="2023-10-21T22:18:13.622Z" agent="Mozilla/5.0 (Windows NT 10.0; Win64; x64) AppleWebKit/537.36 (KHTML, like Gecko) Chrome/118.0.0.0 Safari/537.36" etag="0mKqzjl_vEEl-QCPWa0i" version="21.7.2" type="github">
  <diagram name="Page-1" id="nBOkLxwNGU7A_5iAjVPO">
    <mxGraphModel dx="1981" dy="1571" grid="1" gridSize="10" guides="1" tooltips="1" connect="1" arrows="1" fold="1" page="1" pageScale="1" pageWidth="850" pageHeight="1100" math="0" shadow="0">
      <root>
        <mxCell id="0" />
        <mxCell id="1" parent="0" />
        <mxCell id="J_xTr0NelwBWzcvb5H2C-30" value="" style="group" vertex="1" connectable="0" parent="1">
          <mxGeometry x="-620" y="160" width="928" height="780" as="geometry" />
        </mxCell>
        <mxCell id="J_xTr0NelwBWzcvb5H2C-1" value="VPC" style="points=[[0,0],[0.25,0],[0.5,0],[0.75,0],[1,0],[1,0.25],[1,0.5],[1,0.75],[1,1],[0.75,1],[0.5,1],[0.25,1],[0,1],[0,0.75],[0,0.5],[0,0.25]];outlineConnect=0;gradientColor=none;html=1;whiteSpace=wrap;fontSize=12;fontStyle=0;container=1;pointerEvents=0;collapsible=0;recursiveResize=0;shape=mxgraph.aws4.group;grIcon=mxgraph.aws4.group_vpc;strokeColor=#248814;fillColor=none;verticalAlign=top;align=left;spacingLeft=30;fontColor=#AAB7B8;dashed=0;" vertex="1" parent="J_xTr0NelwBWzcvb5H2C-30">
          <mxGeometry x="30" y="30" width="630" height="720" as="geometry" />
        </mxCell>
        <mxCell id="J_xTr0NelwBWzcvb5H2C-2" value="&lt;font style=&quot;font-size: 14px;&quot;&gt;10.1.0.0/16&lt;/font&gt;" style="text;strokeColor=none;align=center;fillColor=none;html=1;verticalAlign=middle;whiteSpace=wrap;rounded=0;" vertex="1" parent="J_xTr0NelwBWzcvb5H2C-1">
          <mxGeometry x="40" width="110" height="30" as="geometry" />
        </mxCell>
        <mxCell id="J_xTr0NelwBWzcvb5H2C-6" value="US-WEST-2" style="points=[[0,0],[0.25,0],[0.5,0],[0.75,0],[1,0],[1,0.25],[1,0.5],[1,0.75],[1,1],[0.75,1],[0.5,1],[0.25,1],[0,1],[0,0.75],[0,0.5],[0,0.25]];outlineConnect=0;gradientColor=none;html=1;whiteSpace=wrap;fontSize=12;fontStyle=0;container=1;pointerEvents=0;collapsible=0;recursiveResize=0;shape=mxgraph.aws4.group;grIcon=mxgraph.aws4.group_region;strokeColor=#147EBA;fillColor=none;verticalAlign=top;align=left;spacingLeft=30;fontColor=#147EBA;dashed=1;" vertex="1" parent="J_xTr0NelwBWzcvb5H2C-30">
          <mxGeometry width="700" height="780" as="geometry" />
        </mxCell>
        <mxCell id="J_xTr0NelwBWzcvb5H2C-42" value="&lt;div&gt;&lt;font style=&quot;font-size: 14px;&quot; color=&quot;#000000&quot;&gt;ansible_subnet_a&lt;/font&gt;&lt;/div&gt;&lt;div&gt;&lt;font style=&quot;font-size: 14px;&quot; color=&quot;#000000&quot;&gt;10.1.1.0/24&lt;/font&gt;&lt;/div&gt;" style="points=[[0,0],[0.25,0],[0.5,0],[0.75,0],[1,0],[1,0.25],[1,0.5],[1,0.75],[1,1],[0.75,1],[0.5,1],[0.25,1],[0,1],[0,0.75],[0,0.5],[0,0.25]];outlineConnect=0;gradientColor=none;html=1;whiteSpace=wrap;fontSize=12;fontStyle=0;container=1;pointerEvents=0;collapsible=0;recursiveResize=0;shape=mxgraph.aws4.group;grIcon=mxgraph.aws4.group_security_group;grStroke=0;strokeColor=#147EBA;fillColor=#E6F2F8;verticalAlign=top;align=left;spacingLeft=30;fontColor=#147EBA;dashed=0;" vertex="1" parent="J_xTr0NelwBWzcvb5H2C-6">
          <mxGeometry x="50" y="90" width="350" height="170" as="geometry" />
        </mxCell>
        <mxCell id="J_xTr0NelwBWzcvb5H2C-48" style="edgeStyle=orthogonalEdgeStyle;rounded=0;orthogonalLoop=1;jettySize=auto;html=1;exitX=1;exitY=0.5;exitDx=0;exitDy=0;shape=link;strokeWidth=3;" edge="1" parent="J_xTr0NelwBWzcvb5H2C-30" source="J_xTr0NelwBWzcvb5H2C-33" target="J_xTr0NelwBWzcvb5H2C-43">
          <mxGeometry relative="1" as="geometry" />
        </mxCell>
        <mxCell id="J_xTr0NelwBWzcvb5H2C-33" value="&lt;font color=&quot;#000000&quot; style=&quot;font-size: 14px;&quot;&gt;ansible_subnet_c&lt;br&gt;10.1.3.0/24&lt;/font&gt;&lt;font color=&quot;#000000&quot; style=&quot;font-size: 14px;&quot;&gt;&lt;br&gt;&lt;/font&gt;" style="points=[[0,0],[0.25,0],[0.5,0],[0.75,0],[1,0],[1,0.25],[1,0.5],[1,0.75],[1,1],[0.75,1],[0.5,1],[0.25,1],[0,1],[0,0.75],[0,0.5],[0,0.25]];outlineConnect=0;gradientColor=none;html=1;whiteSpace=wrap;fontSize=12;fontStyle=0;container=1;pointerEvents=0;collapsible=0;recursiveResize=0;shape=mxgraph.aws4.group;grIcon=mxgraph.aws4.group_security_group;grStroke=0;strokeColor=#147EBA;fillColor=#E6F2F8;verticalAlign=top;align=left;spacingLeft=30;fontColor=#147EBA;dashed=0;" vertex="1" parent="J_xTr0NelwBWzcvb5H2C-30">
          <mxGeometry x="51" y="550" width="349" height="170" as="geometry" />
        </mxCell>
        <mxCell id="J_xTr0NelwBWzcvb5H2C-46" style="rounded=0;orthogonalLoop=1;jettySize=auto;html=1;exitX=1;exitY=0.5;exitDx=0;exitDy=0;strokeWidth=3;strokeColor=default;shape=link;" edge="1" parent="J_xTr0NelwBWzcvb5H2C-30" source="J_xTr0NelwBWzcvb5H2C-41" target="J_xTr0NelwBWzcvb5H2C-43">
          <mxGeometry relative="1" as="geometry" />
        </mxCell>
        <mxCell id="J_xTr0NelwBWzcvb5H2C-41" value="&lt;font color=&quot;#000000&quot; style=&quot;font-size: 14px;&quot;&gt;ansible_subnet_b&lt;br&gt;10.1.2.0/24&lt;/font&gt;&lt;font style=&quot;font-size: 14px;&quot; color=&quot;#000000&quot;&gt;&lt;br&gt;&lt;/font&gt;" style="points=[[0,0],[0.25,0],[0.5,0],[0.75,0],[1,0],[1,0.25],[1,0.5],[1,0.75],[1,1],[0.75,1],[0.5,1],[0.25,1],[0,1],[0,0.75],[0,0.5],[0,0.25]];outlineConnect=0;gradientColor=none;html=1;whiteSpace=wrap;fontSize=12;fontStyle=0;container=1;pointerEvents=0;collapsible=0;recursiveResize=0;shape=mxgraph.aws4.group;grIcon=mxgraph.aws4.group_security_group;grStroke=0;strokeColor=#147EBA;fillColor=#E6F2F8;verticalAlign=top;align=left;spacingLeft=30;fontColor=#147EBA;dashed=0;" vertex="1" parent="J_xTr0NelwBWzcvb5H2C-30">
          <mxGeometry x="50" y="310" width="350" height="170" as="geometry" />
        </mxCell>
        <mxCell id="J_xTr0NelwBWzcvb5H2C-51" style="edgeStyle=orthogonalEdgeStyle;rounded=0;orthogonalLoop=1;jettySize=auto;html=1;strokeWidth=3;shape=link;" edge="1" parent="J_xTr0NelwBWzcvb5H2C-30" source="J_xTr0NelwBWzcvb5H2C-43" target="J_xTr0NelwBWzcvb5H2C-49">
          <mxGeometry relative="1" as="geometry" />
        </mxCell>
        <mxCell id="J_xTr0NelwBWzcvb5H2C-43" value="" style="sketch=0;outlineConnect=0;fontColor=#232F3E;gradientColor=none;fillColor=#4D27AA;strokeColor=none;dashed=0;verticalLabelPosition=bottom;verticalAlign=top;align=center;html=1;fontSize=12;fontStyle=0;aspect=fixed;pointerEvents=1;shape=mxgraph.aws4.route_table;" vertex="1" parent="J_xTr0NelwBWzcvb5H2C-30">
          <mxGeometry x="460" y="331.67" width="130" height="126.67" as="geometry" />
        </mxCell>
        <mxCell id="J_xTr0NelwBWzcvb5H2C-47" style="rounded=0;orthogonalLoop=1;jettySize=auto;html=1;exitX=1;exitY=0.5;exitDx=0;exitDy=0;strokeWidth=3;shape=link;edgeStyle=orthogonalEdgeStyle;" edge="1" parent="J_xTr0NelwBWzcvb5H2C-30" source="J_xTr0NelwBWzcvb5H2C-42" target="J_xTr0NelwBWzcvb5H2C-43">
          <mxGeometry relative="1" as="geometry" />
        </mxCell>
        <mxCell id="J_xTr0NelwBWzcvb5H2C-49" value="" style="sketch=0;outlineConnect=0;fontColor=#232F3E;gradientColor=none;fillColor=#4D27AA;strokeColor=none;dashed=0;verticalLabelPosition=bottom;verticalAlign=top;align=center;html=1;fontSize=12;fontStyle=0;aspect=fixed;pointerEvents=1;shape=mxgraph.aws4.internet_gateway;" vertex="1" parent="J_xTr0NelwBWzcvb5H2C-30">
          <mxGeometry x="630" y="343.01" width="103.99" height="103.99" as="geometry" />
        </mxCell>
        <mxCell id="J_xTr0NelwBWzcvb5H2C-4" value="Internet" style="sketch=0;outlineConnect=0;fontColor=#232F3E;gradientColor=none;strokeColor=#232F3E;fillColor=#ffffff;dashed=0;verticalLabelPosition=bottom;verticalAlign=top;align=center;html=1;fontSize=12;fontStyle=0;aspect=fixed;shape=mxgraph.aws4.resourceIcon;resIcon=mxgraph.aws4.internet;" vertex="1" parent="J_xTr0NelwBWzcvb5H2C-30">
          <mxGeometry x="810" y="336" width="118" height="118" as="geometry" />
        </mxCell>
        <mxCell id="J_xTr0NelwBWzcvb5H2C-52" style="rounded=0;orthogonalLoop=1;jettySize=auto;html=1;shape=link;strokeWidth=3;" edge="1" parent="J_xTr0NelwBWzcvb5H2C-30" source="J_xTr0NelwBWzcvb5H2C-49" target="J_xTr0NelwBWzcvb5H2C-4">
          <mxGeometry relative="1" as="geometry">
            <mxPoint x="850" y="390" as="targetPoint" />
          </mxGeometry>
        </mxCell>
      </root>
    </mxGraphModel>
  </diagram>
</mxfile>
